<mxfile host="app.diagrams.net" modified="2024-06-03T21:18:22.077Z" agent="Mozilla/5.0 (Windows NT 10.0; Win64; x64) AppleWebKit/537.36 (KHTML, like Gecko) Chrome/125.0.0.0 Safari/537.36" etag="Em-Nz018t2_OEj9KreHN" version="24.4.2" type="device" pages="2">
  <diagram id="WRYycTqwSHWXU3EyRlg2" name="Diagrama_de_CasosdeUso">
    <mxGraphModel dx="3176" dy="1816" grid="1" gridSize="10" guides="1" tooltips="1" connect="1" arrows="1" fold="1" page="1" pageScale="1" pageWidth="1200" pageHeight="1920" math="0" shadow="0">
      <root>
        <mxCell id="0" />
        <mxCell id="1" parent="0" />
        <mxCell id="_lXPD2TZBbK-4g8FCfM6-6" style="edgeStyle=orthogonalEdgeStyle;rounded=0;orthogonalLoop=1;jettySize=auto;html=1;exitX=0.5;exitY=0.5;exitDx=0;exitDy=0;exitPerimeter=0;entryX=0;entryY=0.5;entryDx=0;entryDy=0;" edge="1" parent="1" source="_lXPD2TZBbK-4g8FCfM6-1" target="_lXPD2TZBbK-4g8FCfM6-3">
          <mxGeometry relative="1" as="geometry" />
        </mxCell>
        <mxCell id="_lXPD2TZBbK-4g8FCfM6-23" style="edgeStyle=orthogonalEdgeStyle;rounded=0;orthogonalLoop=1;jettySize=auto;html=1;exitX=0.5;exitY=0.5;exitDx=0;exitDy=0;exitPerimeter=0;entryX=0;entryY=0.5;entryDx=0;entryDy=0;" edge="1" parent="1" source="_lXPD2TZBbK-4g8FCfM6-1" target="_lXPD2TZBbK-4g8FCfM6-5">
          <mxGeometry relative="1" as="geometry" />
        </mxCell>
        <mxCell id="_lXPD2TZBbK-4g8FCfM6-24" style="edgeStyle=orthogonalEdgeStyle;rounded=0;orthogonalLoop=1;jettySize=auto;html=1;exitX=0.5;exitY=0.5;exitDx=0;exitDy=0;exitPerimeter=0;entryX=0;entryY=0.5;entryDx=0;entryDy=0;" edge="1" parent="1" source="_lXPD2TZBbK-4g8FCfM6-1" target="_lXPD2TZBbK-4g8FCfM6-7">
          <mxGeometry relative="1" as="geometry" />
        </mxCell>
        <mxCell id="_lXPD2TZBbK-4g8FCfM6-1" value="cliente" style="shape=umlActor;verticalLabelPosition=bottom;verticalAlign=top;html=1;outlineConnect=0;" vertex="1" parent="1">
          <mxGeometry x="475" y="300" width="30" height="60" as="geometry" />
        </mxCell>
        <mxCell id="_lXPD2TZBbK-4g8FCfM6-3" value="realizar pedidos" style="ellipse;whiteSpace=wrap;html=1;" vertex="1" parent="1">
          <mxGeometry x="605" y="290" width="120" height="80" as="geometry" />
        </mxCell>
        <mxCell id="_lXPD2TZBbK-4g8FCfM6-5" value="Pagar pedido" style="ellipse;whiteSpace=wrap;html=1;" vertex="1" parent="1">
          <mxGeometry x="605" y="170" width="120" height="80" as="geometry" />
        </mxCell>
        <mxCell id="_lXPD2TZBbK-4g8FCfM6-7" value="Recibir notificaciones sobre estado del pedido" style="ellipse;whiteSpace=wrap;html=1;" vertex="1" parent="1">
          <mxGeometry x="605" y="410" width="120" height="80" as="geometry" />
        </mxCell>
        <mxCell id="_lXPD2TZBbK-4g8FCfM6-15" style="edgeStyle=orthogonalEdgeStyle;rounded=0;orthogonalLoop=1;jettySize=auto;html=1;exitX=0.5;exitY=0.5;exitDx=0;exitDy=0;exitPerimeter=0;entryX=0;entryY=0.5;entryDx=0;entryDy=0;" edge="1" parent="1" source="_lXPD2TZBbK-4g8FCfM6-9" target="_lXPD2TZBbK-4g8FCfM6-14">
          <mxGeometry relative="1" as="geometry" />
        </mxCell>
        <mxCell id="_lXPD2TZBbK-4g8FCfM6-17" style="edgeStyle=orthogonalEdgeStyle;rounded=0;orthogonalLoop=1;jettySize=auto;html=1;exitX=0.5;exitY=0.5;exitDx=0;exitDy=0;exitPerimeter=0;entryX=0;entryY=0.5;entryDx=0;entryDy=0;" edge="1" parent="1" source="_lXPD2TZBbK-4g8FCfM6-9" target="_lXPD2TZBbK-4g8FCfM6-16">
          <mxGeometry relative="1" as="geometry" />
        </mxCell>
        <mxCell id="_lXPD2TZBbK-4g8FCfM6-9" value="Empleado" style="shape=umlActor;verticalLabelPosition=bottom;verticalAlign=top;html=1;outlineConnect=0;" vertex="1" parent="1">
          <mxGeometry x="475" y="690" width="30" height="60" as="geometry" />
        </mxCell>
        <mxCell id="_lXPD2TZBbK-4g8FCfM6-14" value="Gestionar pedido" style="ellipse;whiteSpace=wrap;html=1;" vertex="1" parent="1">
          <mxGeometry x="605" y="610" width="120" height="80" as="geometry" />
        </mxCell>
        <mxCell id="_lXPD2TZBbK-4g8FCfM6-16" value="Actualizar estado del pedido" style="ellipse;whiteSpace=wrap;html=1;" vertex="1" parent="1">
          <mxGeometry x="605" y="770" width="120" height="80" as="geometry" />
        </mxCell>
        <mxCell id="_lXPD2TZBbK-4g8FCfM6-18" style="edgeStyle=orthogonalEdgeStyle;rounded=0;orthogonalLoop=1;jettySize=auto;html=1;exitX=0.5;exitY=0.5;exitDx=0;exitDy=0;exitPerimeter=0;entryX=0;entryY=0.5;entryDx=0;entryDy=0;" edge="1" parent="1" source="_lXPD2TZBbK-4g8FCfM6-20" target="_lXPD2TZBbK-4g8FCfM6-21">
          <mxGeometry relative="1" as="geometry" />
        </mxCell>
        <mxCell id="_lXPD2TZBbK-4g8FCfM6-19" style="edgeStyle=orthogonalEdgeStyle;rounded=0;orthogonalLoop=1;jettySize=auto;html=1;exitX=0.5;exitY=0.5;exitDx=0;exitDy=0;exitPerimeter=0;entryX=0;entryY=0.5;entryDx=0;entryDy=0;" edge="1" parent="1" source="_lXPD2TZBbK-4g8FCfM6-20" target="_lXPD2TZBbK-4g8FCfM6-22">
          <mxGeometry relative="1" as="geometry" />
        </mxCell>
        <mxCell id="_lXPD2TZBbK-4g8FCfM6-20" value="Gerente" style="shape=umlActor;verticalLabelPosition=bottom;verticalAlign=top;html=1;outlineConnect=0;" vertex="1" parent="1">
          <mxGeometry x="475" y="1050" width="30" height="60" as="geometry" />
        </mxCell>
        <mxCell id="_lXPD2TZBbK-4g8FCfM6-21" value="Ver informes de ventas" style="ellipse;whiteSpace=wrap;html=1;" vertex="1" parent="1">
          <mxGeometry x="605" y="970" width="120" height="80" as="geometry" />
        </mxCell>
        <mxCell id="_lXPD2TZBbK-4g8FCfM6-22" value="Gestionar inventario" style="ellipse;whiteSpace=wrap;html=1;" vertex="1" parent="1">
          <mxGeometry x="605" y="1130" width="120" height="80" as="geometry" />
        </mxCell>
        <mxCell id="_lXPD2TZBbK-4g8FCfM6-25" style="edgeStyle=orthogonalEdgeStyle;rounded=0;orthogonalLoop=1;jettySize=auto;html=1;exitX=0.5;exitY=0.5;exitDx=0;exitDy=0;exitPerimeter=0;entryX=0;entryY=0.5;entryDx=0;entryDy=0;" edge="1" parent="1" source="_lXPD2TZBbK-4g8FCfM6-27" target="_lXPD2TZBbK-4g8FCfM6-28">
          <mxGeometry relative="1" as="geometry" />
        </mxCell>
        <mxCell id="_lXPD2TZBbK-4g8FCfM6-26" style="edgeStyle=orthogonalEdgeStyle;rounded=0;orthogonalLoop=1;jettySize=auto;html=1;exitX=0.5;exitY=0.5;exitDx=0;exitDy=0;exitPerimeter=0;entryX=0;entryY=0.5;entryDx=0;entryDy=0;" edge="1" parent="1" source="_lXPD2TZBbK-4g8FCfM6-27" target="_lXPD2TZBbK-4g8FCfM6-29">
          <mxGeometry relative="1" as="geometry" />
        </mxCell>
        <mxCell id="_lXPD2TZBbK-4g8FCfM6-27" value="Administrador" style="shape=umlActor;verticalLabelPosition=bottom;verticalAlign=top;html=1;outlineConnect=0;" vertex="1" parent="1">
          <mxGeometry x="475" y="1410" width="30" height="60" as="geometry" />
        </mxCell>
        <mxCell id="_lXPD2TZBbK-4g8FCfM6-28" value="Gestionar usuarios" style="ellipse;whiteSpace=wrap;html=1;" vertex="1" parent="1">
          <mxGeometry x="605" y="1330" width="120" height="80" as="geometry" />
        </mxCell>
        <mxCell id="_lXPD2TZBbK-4g8FCfM6-29" value="configurar parÃ¡metros del sistema" style="ellipse;whiteSpace=wrap;html=1;" vertex="1" parent="1">
          <mxGeometry x="605" y="1490" width="120" height="80" as="geometry" />
        </mxCell>
      </root>
    </mxGraphModel>
  </diagram>
  <diagram id="C5RBs43oDa-KdzZeNtuy" name="Diagrama_de_Clases">
    <mxGraphModel dx="1444" dy="825" grid="1" gridSize="10" guides="1" tooltips="1" connect="1" arrows="1" fold="1" page="1" pageScale="1" pageWidth="1200" pageHeight="1920" math="0" shadow="0">
      <root>
        <mxCell id="WIyWlLk6GJQsqaUBKTNV-0" />
        <mxCell id="WIyWlLk6GJQsqaUBKTNV-1" parent="WIyWlLk6GJQsqaUBKTNV-0" />
        <mxCell id="qoqk2TT6nea6VP2X0-z5-0" value="Users" style="swimlane;fontStyle=1;align=center;verticalAlign=top;childLayout=stackLayout;horizontal=1;startSize=26;horizontalStack=0;resizeParent=1;resizeParentMax=0;resizeLast=0;collapsible=1;marginBottom=0;whiteSpace=wrap;html=1;" vertex="1" parent="WIyWlLk6GJQsqaUBKTNV-1">
          <mxGeometry x="560" y="170" width="160" height="194" as="geometry" />
        </mxCell>
        <mxCell id="qoqk2TT6nea6VP2X0-z5-1" value="+ ID_cliente:&lt;div&gt;&lt;br&gt;&lt;div&gt;+ ID_empleados:&lt;/div&gt;&lt;div&gt;&lt;br&gt;&lt;/div&gt;&lt;div&gt;+ ID_gerentes:&lt;/div&gt;&lt;div&gt;&lt;br&gt;&lt;/div&gt;&lt;div&gt;+ID_ administrador:&lt;/div&gt;&lt;/div&gt;" style="text;strokeColor=none;fillColor=none;align=left;verticalAlign=top;spacingLeft=4;spacingRight=4;overflow=hidden;rotatable=0;points=[[0,0.5],[1,0.5]];portConstraint=eastwest;whiteSpace=wrap;html=1;" vertex="1" parent="qoqk2TT6nea6VP2X0-z5-0">
          <mxGeometry y="26" width="160" height="134" as="geometry" />
        </mxCell>
        <mxCell id="qoqk2TT6nea6VP2X0-z5-2" value="" style="line;strokeWidth=1;fillColor=none;align=left;verticalAlign=middle;spacingTop=-1;spacingLeft=3;spacingRight=3;rotatable=0;labelPosition=right;points=[];portConstraint=eastwest;strokeColor=inherit;" vertex="1" parent="qoqk2TT6nea6VP2X0-z5-0">
          <mxGeometry y="160" width="160" height="8" as="geometry" />
        </mxCell>
        <mxCell id="qoqk2TT6nea6VP2X0-z5-3" value="+" style="text;strokeColor=none;fillColor=none;align=left;verticalAlign=top;spacingLeft=4;spacingRight=4;overflow=hidden;rotatable=0;points=[[0,0.5],[1,0.5]];portConstraint=eastwest;whiteSpace=wrap;html=1;" vertex="1" parent="qoqk2TT6nea6VP2X0-z5-0">
          <mxGeometry y="168" width="160" height="26" as="geometry" />
        </mxCell>
        <mxCell id="qoqk2TT6nea6VP2X0-z5-12" value="Administrador" style="swimlane;fontStyle=1;align=center;verticalAlign=top;childLayout=stackLayout;horizontal=1;startSize=26;horizontalStack=0;resizeParent=1;resizeParentMax=0;resizeLast=0;collapsible=1;marginBottom=0;whiteSpace=wrap;html=1;" vertex="1" parent="WIyWlLk6GJQsqaUBKTNV-1">
          <mxGeometry x="860" y="440" width="160" height="210" as="geometry" />
        </mxCell>
        <mxCell id="qoqk2TT6nea6VP2X0-z5-13" value="&lt;div&gt;&lt;div&gt;+ID_ administrador:&lt;/div&gt;&lt;/div&gt;&lt;div&gt;&lt;br&gt;&lt;/div&gt;&lt;div&gt;&lt;div&gt;+ Nombre:&lt;/div&gt;&lt;div&gt;&lt;br&gt;&lt;/div&gt;&lt;div&gt;+ Rol:&lt;/div&gt;&lt;div&gt;&lt;br&gt;&lt;/div&gt;&lt;div&gt;+ Email:&lt;/div&gt;&lt;/div&gt;" style="text;strokeColor=none;fillColor=none;align=left;verticalAlign=top;spacingLeft=4;spacingRight=4;overflow=hidden;rotatable=0;points=[[0,0.5],[1,0.5]];portConstraint=eastwest;whiteSpace=wrap;html=1;" vertex="1" parent="qoqk2TT6nea6VP2X0-z5-12">
          <mxGeometry y="26" width="160" height="114" as="geometry" />
        </mxCell>
        <mxCell id="qoqk2TT6nea6VP2X0-z5-14" value="" style="line;strokeWidth=1;fillColor=none;align=left;verticalAlign=middle;spacingTop=-1;spacingLeft=3;spacingRight=3;rotatable=0;labelPosition=right;points=[];portConstraint=eastwest;strokeColor=inherit;" vertex="1" parent="qoqk2TT6nea6VP2X0-z5-12">
          <mxGeometry y="140" width="160" height="8" as="geometry" />
        </mxCell>
        <mxCell id="qoqk2TT6nea6VP2X0-z5-15" value="+ agregar(Clientes)&lt;div&gt;+ editar(Clientes)&lt;/div&gt;&lt;div&gt;+ eliminar(Clientes)&lt;/div&gt;" style="text;strokeColor=none;fillColor=none;align=left;verticalAlign=top;spacingLeft=4;spacingRight=4;overflow=hidden;rotatable=0;points=[[0,0.5],[1,0.5]];portConstraint=eastwest;whiteSpace=wrap;html=1;" vertex="1" parent="qoqk2TT6nea6VP2X0-z5-12">
          <mxGeometry y="148" width="160" height="62" as="geometry" />
        </mxCell>
        <mxCell id="qoqk2TT6nea6VP2X0-z5-16" value="" style="edgeStyle=orthogonalEdgeStyle;rounded=0;orthogonalLoop=1;jettySize=auto;html=1;exitX=0.5;exitY=0;exitDx=0;exitDy=0;entryX=1;entryY=0.5;entryDx=0;entryDy=0;" edge="1" parent="WIyWlLk6GJQsqaUBKTNV-1" source="qoqk2TT6nea6VP2X0-z5-12" target="qoqk2TT6nea6VP2X0-z5-3">
          <mxGeometry relative="1" as="geometry">
            <mxPoint x="680" y="400" as="targetPoint" />
          </mxGeometry>
        </mxCell>
        <mxCell id="qoqk2TT6nea6VP2X0-z5-17" value="Cliente" style="swimlane;fontStyle=1;align=center;verticalAlign=top;childLayout=stackLayout;horizontal=1;startSize=26;horizontalStack=0;resizeParent=1;resizeParentMax=0;resizeLast=0;collapsible=1;marginBottom=0;whiteSpace=wrap;html=1;" vertex="1" parent="WIyWlLk6GJQsqaUBKTNV-1">
          <mxGeometry x="240" y="450" width="160" height="190" as="geometry" />
        </mxCell>
        <mxCell id="qoqk2TT6nea6VP2X0-z5-18" value="+ ID_cliente:&lt;div&gt;&lt;br&gt;&lt;div&gt;+ Nombre:&lt;/div&gt;&lt;div&gt;&lt;br&gt;&lt;/div&gt;&lt;div&gt;+ Rol:&lt;/div&gt;&lt;div&gt;&lt;br&gt;&lt;/div&gt;&lt;div&gt;+ Email:&lt;/div&gt;&lt;/div&gt;" style="text;strokeColor=none;fillColor=none;align=left;verticalAlign=top;spacingLeft=4;spacingRight=4;overflow=hidden;rotatable=0;points=[[0,0.5],[1,0.5]];portConstraint=eastwest;whiteSpace=wrap;html=1;" vertex="1" parent="qoqk2TT6nea6VP2X0-z5-17">
          <mxGeometry y="26" width="160" height="114" as="geometry" />
        </mxCell>
        <mxCell id="qoqk2TT6nea6VP2X0-z5-19" value="" style="line;strokeWidth=1;fillColor=none;align=left;verticalAlign=middle;spacingTop=-1;spacingLeft=3;spacingRight=3;rotatable=0;labelPosition=right;points=[];portConstraint=eastwest;strokeColor=inherit;" vertex="1" parent="qoqk2TT6nea6VP2X0-z5-17">
          <mxGeometry y="140" width="160" height="8" as="geometry" />
        </mxCell>
        <mxCell id="qoqk2TT6nea6VP2X0-z5-20" value="+ Agregar(pedido)&lt;div&gt;+Eliminar(Pedido)&lt;/div&gt;" style="text;strokeColor=none;fillColor=none;align=left;verticalAlign=top;spacingLeft=4;spacingRight=4;overflow=hidden;rotatable=0;points=[[0,0.5],[1,0.5]];portConstraint=eastwest;whiteSpace=wrap;html=1;" vertex="1" parent="qoqk2TT6nea6VP2X0-z5-17">
          <mxGeometry y="148" width="160" height="42" as="geometry" />
        </mxCell>
        <mxCell id="qoqk2TT6nea6VP2X0-z5-21" value="Empleado" style="swimlane;fontStyle=1;align=center;verticalAlign=top;childLayout=stackLayout;horizontal=1;startSize=26;horizontalStack=0;resizeParent=1;resizeParentMax=0;resizeLast=0;collapsible=1;marginBottom=0;whiteSpace=wrap;html=1;" vertex="1" parent="WIyWlLk6GJQsqaUBKTNV-1">
          <mxGeometry x="460" y="450" width="160" height="174" as="geometry" />
        </mxCell>
        <mxCell id="qoqk2TT6nea6VP2X0-z5-22" value="&lt;div&gt;&lt;div&gt;+ ID_empleados:&lt;/div&gt;&lt;div&gt;&lt;br&gt;&lt;/div&gt;&lt;div&gt;&lt;div&gt;+ Nombre:&lt;/div&gt;&lt;div&gt;&lt;br&gt;&lt;/div&gt;&lt;div&gt;+ Rol:&lt;/div&gt;&lt;div&gt;&lt;br&gt;&lt;/div&gt;&lt;div&gt;+ Email:&lt;/div&gt;&lt;/div&gt;&lt;div&gt;&lt;br&gt;&lt;/div&gt;&lt;/div&gt;" style="text;strokeColor=none;fillColor=none;align=left;verticalAlign=top;spacingLeft=4;spacingRight=4;overflow=hidden;rotatable=0;points=[[0,0.5],[1,0.5]];portConstraint=eastwest;whiteSpace=wrap;html=1;" vertex="1" parent="qoqk2TT6nea6VP2X0-z5-21">
          <mxGeometry y="26" width="160" height="114" as="geometry" />
        </mxCell>
        <mxCell id="qoqk2TT6nea6VP2X0-z5-23" value="" style="line;strokeWidth=1;fillColor=none;align=left;verticalAlign=middle;spacingTop=-1;spacingLeft=3;spacingRight=3;rotatable=0;labelPosition=right;points=[];portConstraint=eastwest;strokeColor=inherit;" vertex="1" parent="qoqk2TT6nea6VP2X0-z5-21">
          <mxGeometry y="140" width="160" height="8" as="geometry" />
        </mxCell>
        <mxCell id="qoqk2TT6nea6VP2X0-z5-24" value="+" style="text;strokeColor=none;fillColor=none;align=left;verticalAlign=top;spacingLeft=4;spacingRight=4;overflow=hidden;rotatable=0;points=[[0,0.5],[1,0.5]];portConstraint=eastwest;whiteSpace=wrap;html=1;" vertex="1" parent="qoqk2TT6nea6VP2X0-z5-21">
          <mxGeometry y="148" width="160" height="26" as="geometry" />
        </mxCell>
        <mxCell id="qoqk2TT6nea6VP2X0-z5-27" style="edgeStyle=orthogonalEdgeStyle;rounded=0;orthogonalLoop=1;jettySize=auto;html=1;exitX=0.5;exitY=0;exitDx=0;exitDy=0;entryX=0;entryY=0.5;entryDx=0;entryDy=0;" edge="1" parent="WIyWlLk6GJQsqaUBKTNV-1" source="qoqk2TT6nea6VP2X0-z5-17" target="qoqk2TT6nea6VP2X0-z5-3">
          <mxGeometry relative="1" as="geometry" />
        </mxCell>
        <mxCell id="qoqk2TT6nea6VP2X0-z5-28" style="edgeStyle=orthogonalEdgeStyle;rounded=0;orthogonalLoop=1;jettySize=auto;html=1;exitX=0.5;exitY=0;exitDx=0;exitDy=0;" edge="1" parent="WIyWlLk6GJQsqaUBKTNV-1" source="qoqk2TT6nea6VP2X0-z5-21">
          <mxGeometry relative="1" as="geometry">
            <mxPoint x="640" y="370" as="targetPoint" />
          </mxGeometry>
        </mxCell>
        <mxCell id="qoqk2TT6nea6VP2X0-z5-34" style="edgeStyle=orthogonalEdgeStyle;rounded=0;orthogonalLoop=1;jettySize=auto;html=1;exitX=0.5;exitY=0;exitDx=0;exitDy=0;" edge="1" parent="WIyWlLk6GJQsqaUBKTNV-1" source="qoqk2TT6nea6VP2X0-z5-30">
          <mxGeometry relative="1" as="geometry">
            <mxPoint x="640" y="370" as="targetPoint" />
          </mxGeometry>
        </mxCell>
        <mxCell id="qoqk2TT6nea6VP2X0-z5-30" value="Gerente" style="swimlane;fontStyle=1;align=center;verticalAlign=top;childLayout=stackLayout;horizontal=1;startSize=26;horizontalStack=0;resizeParent=1;resizeParentMax=0;resizeLast=0;collapsible=1;marginBottom=0;whiteSpace=wrap;html=1;" vertex="1" parent="WIyWlLk6GJQsqaUBKTNV-1">
          <mxGeometry x="660" y="450" width="160" height="174" as="geometry" />
        </mxCell>
        <mxCell id="qoqk2TT6nea6VP2X0-z5-31" value="&lt;div&gt;&lt;span style=&quot;background-color: initial;&quot;&gt;+ ID_gerentes:&lt;/span&gt;&lt;br&gt;&lt;/div&gt;&lt;div&gt;&lt;br&gt;&lt;/div&gt;&lt;div&gt;&lt;div&gt;+ Nombre:&lt;/div&gt;&lt;div&gt;&lt;br&gt;&lt;/div&gt;&lt;div&gt;+ Rol:&lt;/div&gt;&lt;div&gt;&lt;br&gt;&lt;/div&gt;&lt;div&gt;+ Email:&lt;/div&gt;&lt;br&gt;&lt;/div&gt;" style="text;strokeColor=none;fillColor=none;align=left;verticalAlign=top;spacingLeft=4;spacingRight=4;overflow=hidden;rotatable=0;points=[[0,0.5],[1,0.5]];portConstraint=eastwest;whiteSpace=wrap;html=1;" vertex="1" parent="qoqk2TT6nea6VP2X0-z5-30">
          <mxGeometry y="26" width="160" height="114" as="geometry" />
        </mxCell>
        <mxCell id="qoqk2TT6nea6VP2X0-z5-32" value="" style="line;strokeWidth=1;fillColor=none;align=left;verticalAlign=middle;spacingTop=-1;spacingLeft=3;spacingRight=3;rotatable=0;labelPosition=right;points=[];portConstraint=eastwest;strokeColor=inherit;" vertex="1" parent="qoqk2TT6nea6VP2X0-z5-30">
          <mxGeometry y="140" width="160" height="8" as="geometry" />
        </mxCell>
        <mxCell id="qoqk2TT6nea6VP2X0-z5-33" value="+ gestionar(inventario)" style="text;strokeColor=none;fillColor=none;align=left;verticalAlign=top;spacingLeft=4;spacingRight=4;overflow=hidden;rotatable=0;points=[[0,0.5],[1,0.5]];portConstraint=eastwest;whiteSpace=wrap;html=1;" vertex="1" parent="qoqk2TT6nea6VP2X0-z5-30">
          <mxGeometry y="148" width="160" height="26" as="geometry" />
        </mxCell>
        <mxCell id="qoqk2TT6nea6VP2X0-z5-38" value="" style="endArrow=none;html=1;edgeStyle=orthogonalEdgeStyle;rounded=0;" edge="1" parent="WIyWlLk6GJQsqaUBKTNV-1">
          <mxGeometry relative="1" as="geometry">
            <mxPoint x="319.7" y="644" as="sourcePoint" />
            <mxPoint x="319.7" y="774" as="targetPoint" />
          </mxGeometry>
        </mxCell>
        <mxCell id="qoqk2TT6nea6VP2X0-z5-39" value="*" style="edgeLabel;resizable=0;html=1;align=left;verticalAlign=bottom;fontSize=20;" connectable="0" vertex="1" parent="qoqk2TT6nea6VP2X0-z5-38">
          <mxGeometry x="-1" relative="1" as="geometry">
            <mxPoint x="-20" y="126" as="offset" />
          </mxGeometry>
        </mxCell>
        <mxCell id="qoqk2TT6nea6VP2X0-z5-40" value="1" style="edgeLabel;resizable=0;html=1;align=right;verticalAlign=bottom;fontSize=13;" connectable="0" vertex="1" parent="qoqk2TT6nea6VP2X0-z5-38">
          <mxGeometry x="1" relative="1" as="geometry">
            <mxPoint x="-10" y="-104" as="offset" />
          </mxGeometry>
        </mxCell>
        <mxCell id="qoqk2TT6nea6VP2X0-z5-41" value="Pedido" style="swimlane;fontStyle=1;align=center;verticalAlign=top;childLayout=stackLayout;horizontal=1;startSize=26;horizontalStack=0;resizeParent=1;resizeParentMax=0;resizeLast=0;collapsible=1;marginBottom=0;whiteSpace=wrap;html=1;" vertex="1" parent="WIyWlLk6GJQsqaUBKTNV-1">
          <mxGeometry x="240" y="770" width="160" height="210" as="geometry" />
        </mxCell>
        <mxCell id="qoqk2TT6nea6VP2X0-z5-42" value="+ ID_pedido:&lt;div&gt;&lt;br&gt;&lt;div&gt;+ fecha:&lt;/div&gt;&lt;div&gt;&lt;br&gt;&lt;/div&gt;&lt;div&gt;+ estado:&lt;/div&gt;&lt;div&gt;&lt;br&gt;&lt;/div&gt;&lt;div&gt;+ Email:&lt;/div&gt;&lt;/div&gt;" style="text;strokeColor=none;fillColor=none;align=left;verticalAlign=top;spacingLeft=4;spacingRight=4;overflow=hidden;rotatable=0;points=[[0,0.5],[1,0.5]];portConstraint=eastwest;whiteSpace=wrap;html=1;" vertex="1" parent="qoqk2TT6nea6VP2X0-z5-41">
          <mxGeometry y="26" width="160" height="114" as="geometry" />
        </mxCell>
        <mxCell id="qoqk2TT6nea6VP2X0-z5-43" value="" style="line;strokeWidth=1;fillColor=none;align=left;verticalAlign=middle;spacingTop=-1;spacingLeft=3;spacingRight=3;rotatable=0;labelPosition=right;points=[];portConstraint=eastwest;strokeColor=inherit;" vertex="1" parent="qoqk2TT6nea6VP2X0-z5-41">
          <mxGeometry y="140" width="160" height="8" as="geometry" />
        </mxCell>
        <mxCell id="qoqk2TT6nea6VP2X0-z5-44" value="+ pendiente()&lt;div&gt;+ preparaciÃ³n()&lt;/div&gt;&lt;div&gt;+completado()&lt;/div&gt;" style="text;strokeColor=none;fillColor=none;align=left;verticalAlign=top;spacingLeft=4;spacingRight=4;overflow=hidden;rotatable=0;points=[[0,0.5],[1,0.5]];portConstraint=eastwest;whiteSpace=wrap;html=1;" vertex="1" parent="qoqk2TT6nea6VP2X0-z5-41">
          <mxGeometry y="148" width="160" height="62" as="geometry" />
        </mxCell>
        <mxCell id="qoqk2TT6nea6VP2X0-z5-45" value="Producto" style="swimlane;fontStyle=1;align=center;verticalAlign=top;childLayout=stackLayout;horizontal=1;startSize=26;horizontalStack=0;resizeParent=1;resizeParentMax=0;resizeLast=0;collapsible=1;marginBottom=0;whiteSpace=wrap;html=1;" vertex="1" parent="WIyWlLk6GJQsqaUBKTNV-1">
          <mxGeometry x="525" y="760" width="150" height="210" as="geometry" />
        </mxCell>
        <mxCell id="qoqk2TT6nea6VP2X0-z5-46" value="+ ID_producto:&lt;div&gt;&lt;br&gt;&lt;div&gt;+ Nombre:&lt;/div&gt;&lt;div&gt;&lt;br&gt;&lt;/div&gt;&lt;div&gt;+ descripciÃ³n:&lt;/div&gt;&lt;div&gt;&lt;br&gt;&lt;/div&gt;&lt;div&gt;+ Precio:&lt;/div&gt;&lt;/div&gt;&lt;div&gt;&lt;br&gt;&lt;/div&gt;&lt;div&gt;+ CategorÃ­a&lt;/div&gt;" style="text;strokeColor=none;fillColor=none;align=left;verticalAlign=top;spacingLeft=4;spacingRight=4;overflow=hidden;rotatable=0;points=[[0,0.5],[1,0.5]];portConstraint=eastwest;whiteSpace=wrap;html=1;" vertex="1" parent="qoqk2TT6nea6VP2X0-z5-45">
          <mxGeometry y="26" width="150" height="144" as="geometry" />
        </mxCell>
        <mxCell id="qoqk2TT6nea6VP2X0-z5-47" value="" style="line;strokeWidth=1;fillColor=none;align=left;verticalAlign=middle;spacingTop=-1;spacingLeft=3;spacingRight=3;rotatable=0;labelPosition=right;points=[];portConstraint=eastwest;strokeColor=inherit;" vertex="1" parent="qoqk2TT6nea6VP2X0-z5-45">
          <mxGeometry y="170" width="150" height="8" as="geometry" />
        </mxCell>
        <mxCell id="qoqk2TT6nea6VP2X0-z5-48" value="+&amp;nbsp;" style="text;strokeColor=none;fillColor=none;align=left;verticalAlign=top;spacingLeft=4;spacingRight=4;overflow=hidden;rotatable=0;points=[[0,0.5],[1,0.5]];portConstraint=eastwest;whiteSpace=wrap;html=1;" vertex="1" parent="qoqk2TT6nea6VP2X0-z5-45">
          <mxGeometry y="178" width="150" height="32" as="geometry" />
        </mxCell>
        <mxCell id="qoqk2TT6nea6VP2X0-z5-53" value="" style="endArrow=none;html=1;edgeStyle=orthogonalEdgeStyle;rounded=0;entryX=1;entryY=0.5;entryDx=0;entryDy=0;exitX=0;exitY=0.5;exitDx=0;exitDy=0;" edge="1" parent="WIyWlLk6GJQsqaUBKTNV-1" source="qoqk2TT6nea6VP2X0-z5-46" target="qoqk2TT6nea6VP2X0-z5-42">
          <mxGeometry relative="1" as="geometry">
            <mxPoint x="520" y="860" as="sourcePoint" />
            <mxPoint x="460" y="1010" as="targetPoint" />
          </mxGeometry>
        </mxCell>
        <mxCell id="qoqk2TT6nea6VP2X0-z5-54" value="*" style="edgeLabel;resizable=0;html=1;align=left;verticalAlign=bottom;fontSize=20;rotation=-180;" connectable="0" vertex="1" parent="qoqk2TT6nea6VP2X0-z5-53">
          <mxGeometry x="-1" relative="1" as="geometry">
            <mxPoint x="-10" y="-33" as="offset" />
          </mxGeometry>
        </mxCell>
        <mxCell id="qoqk2TT6nea6VP2X0-z5-55" value="1" style="edgeLabel;resizable=0;html=1;align=right;verticalAlign=bottom;fontSize=13;" connectable="0" vertex="1" parent="qoqk2TT6nea6VP2X0-z5-53">
          <mxGeometry x="1" relative="1" as="geometry">
            <mxPoint x="20" y="-3" as="offset" />
          </mxGeometry>
        </mxCell>
        <mxCell id="188rHigKmfaH3Hcv6JXO-0" value="Inventario" style="swimlane;fontStyle=1;align=center;verticalAlign=top;childLayout=stackLayout;horizontal=1;startSize=26;horizontalStack=0;resizeParent=1;resizeParentMax=0;resizeLast=0;collapsible=1;marginBottom=0;whiteSpace=wrap;html=1;" vertex="1" parent="WIyWlLk6GJQsqaUBKTNV-1">
          <mxGeometry x="800" y="770" width="150" height="190" as="geometry" />
        </mxCell>
        <mxCell id="188rHigKmfaH3Hcv6JXO-1" value="+ ID_producto:&lt;div&gt;&lt;br&gt;&lt;div&gt;+ Disponibilidad:&lt;/div&gt;&lt;div&gt;&lt;br&gt;&lt;/div&gt;&lt;div&gt;+ Cantidad:&lt;/div&gt;&lt;div&gt;&lt;br&gt;&lt;/div&gt;&lt;div&gt;+ UbicaciÃ³n:&lt;/div&gt;&lt;/div&gt;" style="text;strokeColor=none;fillColor=none;align=left;verticalAlign=top;spacingLeft=4;spacingRight=4;overflow=hidden;rotatable=0;points=[[0,0.5],[1,0.5]];portConstraint=eastwest;whiteSpace=wrap;html=1;" vertex="1" parent="188rHigKmfaH3Hcv6JXO-0">
          <mxGeometry y="26" width="150" height="124" as="geometry" />
        </mxCell>
        <mxCell id="188rHigKmfaH3Hcv6JXO-2" value="" style="line;strokeWidth=1;fillColor=none;align=left;verticalAlign=middle;spacingTop=-1;spacingLeft=3;spacingRight=3;rotatable=0;labelPosition=right;points=[];portConstraint=eastwest;strokeColor=inherit;" vertex="1" parent="188rHigKmfaH3Hcv6JXO-0">
          <mxGeometry y="150" width="150" height="8" as="geometry" />
        </mxCell>
        <mxCell id="188rHigKmfaH3Hcv6JXO-3" value="+ Registra(Producto)" style="text;strokeColor=none;fillColor=none;align=left;verticalAlign=top;spacingLeft=4;spacingRight=4;overflow=hidden;rotatable=0;points=[[0,0.5],[1,0.5]];portConstraint=eastwest;whiteSpace=wrap;html=1;" vertex="1" parent="188rHigKmfaH3Hcv6JXO-0">
          <mxGeometry y="158" width="150" height="32" as="geometry" />
        </mxCell>
        <mxCell id="188rHigKmfaH3Hcv6JXO-5" style="edgeStyle=orthogonalEdgeStyle;rounded=0;orthogonalLoop=1;jettySize=auto;html=1;exitX=1;exitY=0.5;exitDx=0;exitDy=0;" edge="1" parent="WIyWlLk6GJQsqaUBKTNV-1" source="qoqk2TT6nea6VP2X0-z5-46" target="188rHigKmfaH3Hcv6JXO-1">
          <mxGeometry relative="1" as="geometry" />
        </mxCell>
      </root>
    </mxGraphModel>
  </diagram>
</mxfile>
